<svg width="393" height="223" viewBox="0 0 393 223" fill="none" xmlns="http://www.w3.org/2000/svg">
<rect width="392.48" height="223" rx="8" fill="#E2E8F0"/>
<path d="M210.178 94.7754H182.303C180.824 94.777 179.407 95.3649 178.362 96.4101C177.317 97.4552 176.729 98.8723 176.728 100.35V122.65C176.729 124.128 177.317 125.546 178.362 126.591C179.407 127.636 180.824 128.224 182.303 128.225H210.178C211.656 128.224 213.073 127.636 214.118 126.591C215.163 125.546 215.751 124.128 215.753 122.65V100.35C215.751 98.8723 215.163 97.4552 214.118 96.4101C213.073 95.3649 211.656 94.777 210.178 94.7754V94.7754ZM203.209 100.35C204.036 100.35 204.844 100.596 205.532 101.055C206.219 101.514 206.755 102.168 207.072 102.932C207.388 103.696 207.471 104.536 207.31 105.347C207.148 106.158 206.75 106.903 206.165 107.488C205.581 108.073 204.836 108.471 204.025 108.633C203.213 108.794 202.373 108.711 201.609 108.395C200.845 108.078 200.192 107.542 199.732 106.855C199.273 106.167 199.028 105.359 199.028 104.532C199.029 103.423 199.47 102.36 200.253 101.576C201.037 100.792 202.1 100.352 203.209 100.35V100.35ZM182.303 125.438C181.563 125.438 180.854 125.144 180.331 124.621C179.809 124.099 179.515 123.39 179.515 122.65V116.759L187.776 109.416C188.574 108.709 189.61 108.332 190.675 108.363C191.74 108.394 192.753 108.83 193.508 109.581L199.166 115.227L188.955 125.438H182.303ZM212.965 122.65C212.965 123.39 212.671 124.099 212.149 124.621C211.626 125.144 210.917 125.438 210.178 125.438H192.898L203.474 114.861C204.223 114.224 205.174 113.873 206.157 113.871C207.14 113.868 208.092 114.214 208.844 114.847L212.965 118.281V122.65Z" fill="white"/>
</svg>
